<?xml version="1.0" encoding="UTF-8" standalone="no"?>
<!-- Created with Inkscape (http://www.inkscape.org/) -->

<svg
   xmlns:dc="http://purl.org/dc/elements/1.1/"
   xmlns:cc="http://creativecommons.org/ns#"
   xmlns:rdf="http://www.w3.org/1999/02/22-rdf-syntax-ns#"
   xmlns:svg="http://www.w3.org/2000/svg"
   xmlns="http://www.w3.org/2000/svg"
   xmlns:sodipodi="http://sodipodi.sourceforge.net/DTD/sodipodi-0.dtd"
   xmlns:inkscape="http://www.inkscape.org/namespaces/inkscape"
   width="357.01953"
   height="51.680504"
   id="svg2985"
   version="1.1"
   inkscape:version="0.48.2 r9819"
   sodipodi:docname="Logo.svg">
  <defs
     id="defs2987" />
  <sodipodi:namedview
     id="base"
     pagecolor="#ffffff"
     bordercolor="#660466"
     borderopacity="1"
     inkscape:pageopacity="0.0"
     inkscape:pageshadow="2"
     inkscape:zoom="1"
     inkscape:cx="551.88805"
     inkscape:cy="47.969265"
     inkscape:document-units="px"
     inkscape:current-layer="flowRoot2993"
     showgrid="false"
     fit-margin-top="0"
     fit-margin-left="0"
     fit-margin-right="0"
     fit-margin-bottom="0"
     inkscape:window-width="1920"
     inkscape:window-height="1152"
     inkscape:window-x="1920"
     inkscape:window-y="22"
     inkscape:window-maximized="1"
     showborder="true"
     inkscape:showpageshadow="false" />
  <metadata
     id="metadata2990">
    <rdf:RDF>
      <cc:Work
         rdf:about="">
        <dc:format>image/svg+xml</dc:format>
        <dc:type
           rdf:resource="http://purl.org/dc/dcmitype/StillImage" />
        <dc:title></dc:title>
      </cc:Work>
    </rdf:RDF>
  </metadata>
  <g
     id="layer1"
     inkscape:label="Layer 1"
     inkscape:groupmode="layer"
     transform="translate(-11.082343,-11.115177)">
    <g
       transform="matrix(1.1437908,0,0,1.1437908,3.8078594,45.495264)"
       style="font-size:40px;font-style:normal;font-variant:normal;font-weight:500;font-stretch:normal;line-height:125%;letter-spacing:0px;word-spacing:0px;fill:#000000;fill-opacity:1;stroke:none;font-family:Max-SemiBold;-inkscape-font-specification:Max-SemiBold Medium"
       id="flowRoot2993">
      <path
         inkscape:connector-curvature="0"
         id="path3025"
         style="font-size:72px;font-variant:normal;font-weight:bold;font-stretch:normal;fill:#4d4d4d;font-family:DIN Alternate;-inkscape-font-specification:DIN Alternate Bold"
         d="m 6.3599778,14.755955 6.4239512,0 0,-9.1902464 5.040804,-5.71700868 0,0 8.483304,14.90725508 8.052991,0 -12.509799,-19.4562731 11.003705,-12.4483259 -7.684152,0 -12.263907,14.9687273 -0.122946,0 0,-27.8781033 -6.4239512,0 0,44.813975" />
      <path
         inkscape:connector-curvature="0"
         id="path3027"
         style="font-size:72px;font-variant:normal;font-weight:bold;font-stretch:normal;fill:#4d4d4d;font-family:DIN Alternate;-inkscape-font-specification:DIN Alternate Bold"
         d="m 39.063729,7.0103295 c -4e-6,2.8072817 0.799147,4.8051595 2.397455,5.9936385 1.516332,1.167992 3.442491,1.751987 5.778483,1.751987 l 2.858504,0 0,-6.0551119 -2.213036,0 C 46.28682,8.7008493 45.48767,7.9734164 45.48768,6.5185437 l 0,-36.5765637 -6.423951,0 0,37.0683495" />
      <path
         inkscape:connector-curvature="0"
         id="path3029"
         style="font-size:72px;font-variant:normal;font-weight:bold;font-stretch:normal;fill:#4d4d4d;font-family:DIN Alternate;-inkscape-font-specification:DIN Alternate Bold"
         d="m 72.04411,14.755955 6.423951,0 0,-21.7922554 c -0.04101,-3.8932786 -1.260227,-6.6390796 -3.657657,-8.2374106 -2.397476,-1.55729 -5.604325,-2.31546 -9.620558,-2.27451 -4.753937,-0.08193 -8.350118,1.475389 -10.78855,4.671965 l 5.040804,3.8420763 0,0 c 0.553251,-0.9220742 1.31142,-1.5777873 2.27451,-1.9671433 0.922086,-0.327831 2.182286,-0.491759 3.780603,-0.491785 4.405561,-0.08194 6.587858,1.280716 6.546897,4.0879683 l 0,3.3502901 -8.88288,0 c -3.401526,0.041004 -5.983399,0.9630983 -7.745625,2.7662952 -1.762235,1.76224623 -2.64335,3.9855252 -2.643349,6.6698438 -10e-7,2.8072835 1.014306,5.1125266 3.042925,6.9157366 1.926154,1.844197 4.671955,2.786786 8.237411,2.827768 2.172039,0 3.872795,-0.266383 5.102276,-0.799151 1.249937,-0.512277 2.172034,-1.311427 2.766296,-2.397456 l 0.122946,0 0,2.827768 m 0,-11.2188621 C 72.044089,5.9345567 71.542058,7.4713858 70.538016,8.1475837 69.43148,8.8237957 67.536058,9.1414071 64.851743,9.1004188 62.72066,9.1004249 61.194077,8.6803577 60.271989,7.8402181 59.3089,7.0820559 58.827361,6.1599589 58.827368,5.0739229 58.786381,2.5945158 60.630574,1.3138254 64.359957,1.2318471 l 7.684153,0 0,2.3052458" />
      <path
         inkscape:connector-curvature="0"
         id="path3031"
         style="font-size:72px;font-variant:normal;font-weight:bold;font-stretch:normal;fill:#4d4d4d;font-family:DIN Alternate;-inkscape-font-specification:DIN Alternate Bold"
         d="m 85.018374,4.059615 c 0.04098,3.6064358 1.219213,6.331746 3.534707,8.175938 2.131063,1.885179 4.518274,2.848259 7.161633,2.889241 3.401494,0 6.157546,-1.2602 8.268146,-3.780603 l 0.12295,0 0,3.411764 6.42395,0 0,-31.904599 -6.42395,0 0,18.9952232 c -2e-5,2.1515736 -0.59427,3.8318397 -1.78273,5.0408038 -1.16801,1.2089798 -2.674102,1.8134663 -4.518281,1.8134601 C 95.96059,8.7008493 94.444255,8.0963628 93.255786,6.887383 92.046797,5.6784189 91.442316,3.9981528 91.442325,1.8465792 l 0,-18.9952232 -6.423951,0 0,21.208259" />
      <path
         inkscape:connector-curvature="0"
         id="path3033"
         style="font-size:72px;font-variant:normal;font-weight:bold;font-stretch:normal;fill:#4d4d4d;font-family:DIN Alternate;-inkscape-font-specification:DIN Alternate Bold"
         d="m 119.78148,5.0124501 -4.48755,4.3953352 c 4.15969,3.8113407 8.84189,5.7170087 14.04664,5.7170087 3.83181,-0.04098 6.97718,-0.922098 9.43613,-2.643348 2.47939,-1.680264 3.7396,-4.0674718 3.7806,-7.1616302 -2e-5,-2.6433357 -0.68647,-4.82563334 -2.05935,-6.5468974 -1.47538,-1.7622147 -3.87283,-2.766276 -7.19236,-3.0121872 l -5.2867,-0.3995765 c -1.55734,-0.1639085 -2.64336,-0.5429936 -3.25808,-1.1372543 -0.67621,-0.5327469 -0.99382,-1.157724 -0.95284,-1.8749329 0,-1.1269858 0.42006,-2.0490828 1.26021,-2.7662955 0.79914,-0.717161 2.20277,-1.075754 4.21091,-1.07578 1.76222,2.6e-5 3.31954,0.256164 4.67196,0.768415 1.37288,0.573774 2.67407,1.301207 3.90356,2.182299 l 0,0 3.96501,-4.641228 c -1.55734,-1.352382 -3.31957,-2.428162 -5.28669,-3.227344 -1.02457,-0.368808 -2.12085,-0.655683 -3.28882,-0.860625 -1.16801,-0.184387 -2.48967,-0.276598 -3.96502,-0.27663 -3.40152,3.2e-5 -6.2088,0.819674 -8.42183,2.458929 -2.27452,1.639314 -3.43225,4.09824 -3.47324,7.3767858 0.041,2.7253323 0.9221,4.8461563 2.64335,6.3624782 1.68026,1.55733632 3.86256,2.4589426 6.5469,2.7048215 l 5.65553,0.4917857 c 1.18847,0.040995 2.1413,0.297133 2.85851,0.768415 0.69668,0.4508159 1.04502,1.2499664 1.04505,2.3974559 -3e-5,1.2909459 -0.58403,2.2950071 -1.75199,3.0121872 -1.16801,0.7171941 -2.6741,1.0757876 -4.51829,1.0757815 -4.11871,6.1e-6 -7.47924,-1.3626495 -10.0816,-4.0879687 l 0,0" />
      <path
         inkscape:connector-curvature="0"
         id="path3035"
         style="font-size:72px;font-variant:normal;font-weight:bold;font-stretch:normal;fill:#4d4d4d;font-family:DIN Alternate;-inkscape-font-specification:DIN Alternate Bold"
         d="m 164.19588,14.755955 6.42395,0 0,-3.35029 0,0 c 2.13106,2.397456 4.87686,3.637165 8.23741,3.719129 1.98762,-0.04098 3.68837,-0.440558 5.10228,-1.198728 1.43435,-0.737677 2.5921,-1.721247 3.47324,-2.950714 0.88108,-1.004058 1.48556,-2.3667128 1.81346,-4.087969 0.30733,-1.6392761 0.46102,-4.3440951 0.46104,-8.1144646 -2e-5,-3.8318108 -0.15371,-6.5571204 -0.46104,-8.1759374 -0.3279,-1.63926 -0.93238,-2.960933 -1.81346,-3.965023 -1.80324,-2.6843 -4.66175,-4.077691 -8.57552,-4.180179 -1.6393,3.2e-5 -3.10441,0.338135 -4.39534,1.014309 -1.3934,0.717218 -2.67409,1.639315 -3.84207,2.766294 l 0,0 0,-16.290402 -6.42395,0 0,44.813975 m 12.72495,-25.880224 c 1.51633,2.5e-5 2.71505,0.256164 3.59619,0.768415 0.88109,0.5532829 1.50607,1.3114522 1.87493,2.2745085 0.4098,0.9631027 0.68643,2.0081461 0.82989,3.1351345 0.041,1.2089921 0.0615,2.4487004 0.0615,3.7191294 -2e-5,1.20898857 -0.0205,2.3872233 -0.0615,3.5347102 -0.14346,1.2089842 -0.42009,2.2950106 -0.82989,3.25808 -0.36886,0.9221066 -0.99384,1.6802758 -1.87493,2.2745095 -0.88114,0.5737561 -2.07986,0.8606312 -3.59619,0.860625 -1.43438,6.2e-6 -2.57164,-0.3073595 -3.41176,-0.9220987 -0.88113,-0.5942327 -1.5266,-1.3728935 -1.93641,-2.3359822 -0.38934,-0.9630695 -0.64548,-2.0388501 -0.76841,-3.2273437 -0.12296,-1.1679775 -0.18443,-2.31547582 -0.18442,-3.4425001 -1e-5,-1.2294468 0.0615,-2.4076824 0.18442,-3.5347102 0.12293,-1.1269875 0.37907,-2.1720318 0.76841,-3.1351336 0.40981,-0.9630572 1.05528,-1.7417171 1.93641,-2.3359826 0.84012,-0.594215 1.97738,-0.891336 3.41176,-0.891361 l 0,0" />
      <path
         inkscape:connector-curvature="0"
         id="path3037"
         style="font-size:72px;font-variant:normal;font-weight:bold;font-stretch:normal;fill:#4d4d4d;font-family:DIN Alternate;-inkscape-font-specification:DIN Alternate Bold"
         d="m 213.65108,14.755955 6.42396,0 0,-21.7922554 c -0.041,-3.8932786 -1.26023,-6.6390796 -3.65767,-8.2374106 -2.39747,-1.55729 -5.60432,-2.31546 -9.62055,-2.27451 -4.75394,-0.08193 -8.35012,1.475389 -10.78855,4.671965 l 5.0408,3.8420763 0,0 c 0.55325,-0.9220742 1.31142,-1.5777873 2.27451,-1.9671433 0.92208,-0.327831 2.18229,-0.491759 3.78061,-0.491785 4.40556,-0.08194 6.58785,1.280716 6.54689,4.0879683 l 0,3.3502901 -8.88288,0 c -3.40152,0.041004 -5.98339,0.9630983 -7.74562,2.7662952 -1.76224,1.76224623 -2.64335,3.9855252 -2.64335,6.6698438 0,2.8072835 1.0143,5.1125266 3.04292,6.9157366 1.92616,1.844197 4.67196,2.786786 8.23741,2.827768 2.17204,0 3.8728,-0.266383 5.10228,-0.799151 1.24994,-0.512277 2.17203,-1.311427 2.76629,-2.397456 l 0.12295,0 0,2.827768 m 0,-11.2188621 c -2e-5,2.3974638 -0.50205,3.9342929 -1.5061,4.6104908 -1.10653,0.676212 -3.00195,0.9938234 -5.68626,0.9528351 -2.13109,6.1e-6 -3.65767,-0.4200611 -4.57976,-1.2602007 -0.96309,-0.7581622 -1.44463,-1.6802592 -1.44462,-2.7662952 -0.041,-2.4794071 1.8032,-3.7600975 5.53259,-3.8420758 l 7.68415,0 0,2.3052458" />
      <path
         inkscape:connector-curvature="0"
         id="path3039"
         style="font-size:72px;font-variant:normal;font-weight:bold;font-stretch:normal;fill:#4d4d4d;font-family:DIN Alternate;-inkscape-font-specification:DIN Alternate Bold"
         d="m 245.71278,11.405665 0,3.35029 6.42395,0 0,-44.813975 -6.42395,0 0,16.290402 0,0 c -1.18851,-1.126979 -2.42821,-2.049076 -3.71913,-2.766294 -1.39341,-0.676174 -2.90975,-1.014277 -4.54902,-1.014309 -3.89331,0.102488 -6.74157,1.495879 -8.54477,4.180179 -0.88112,1.00409 -1.46512,2.325763 -1.75199,3.965023 -0.34835,1.618817 -0.52253,4.3441266 -0.52253,8.1759374 0,3.7703695 0.17418,6.4751885 0.52253,8.1144646 0.28687,1.7212562 0.87087,3.083911 1.75199,4.087969 0.96307,1.229467 2.16179,2.213037 3.59618,2.950714 1.37289,0.75817 3.02242,1.157746 4.94859,1.198728 3.4015,-0.08196 6.15755,-1.321673 8.26815,-3.719129 l 0,0 m -6.30101,-22.529934 c 1.51633,2.5e-5 2.71505,0.297146 3.59618,0.891361 0.8811,0.5942655 1.48559,1.3729254 1.81347,2.3359826 0.4098,0.9631018 0.68642,2.0081461 0.82989,3.1351336 0.041,1.1270278 0.0615,2.3052634 0.0615,3.5347102 -2e-5,1.12702428 -0.0206,2.2745226 -0.0615,3.4425001 -0.14347,1.1884936 -0.42009,2.2642742 -0.82989,3.2273437 -0.32788,0.9630887 -0.93237,1.7417495 -1.81347,2.3359822 -0.88113,0.6147392 -2.07985,0.9221049 -3.59618,0.9220987 -1.51635,6.2e-6 -2.6741,-0.2868689 -3.47323,-0.860625 -0.88113,-0.5942337 -1.5266,-1.3524029 -1.93641,-2.2745095 -0.38934,-0.9630694 -0.64548,-2.0490958 -0.76841,-3.25808 -0.12296,-1.1474869 -0.18443,-2.32572163 -0.18442,-3.5347102 -10e-6,-1.270429 0.0615,-2.5101373 0.18442,-3.7191294 0.12293,-1.1269884 0.37907,-2.1720318 0.76841,-3.1351345 0.40981,-0.9630563 1.05528,-1.7212256 1.93641,-2.2745085 0.79913,-0.512251 1.95688,-0.76839 3.47323,-0.768415 l 0,0" />
      <path
         inkscape:connector-curvature="0"
         id="path3041"
         style="font-size:72px;font-variant:normal;font-weight:bold;font-stretch:normal;fill:#4d4d4d;font-family:DIN Alternate;-inkscape-font-specification:DIN Alternate Bold"
         d="m 284.07206,1.2318471 0,-5.2866967 c -0.041,-4.2006466 -1.34218,-7.4997064 -3.90354,-9.8971874 -2.52043,-2.356442 -5.60433,-3.555169 -9.25172,-3.596184 -1.51635,3.2e-5 -3.05318,0.276662 -4.61049,0.829889 -1.57783,0.55329 -3.00195,1.454896 -4.27239,2.704821 -1.24996,1.229493 -2.27451,2.909759 -3.07366,5.0408041 -0.79916,2.0901112 -1.19873,4.7129658 -1.19873,7.8685717 0,3.2785847 0.46105,5.9424206 1.38315,7.9915182 0.84013,2.1310777 1.9364,3.790852 3.28881,4.979331 0.69669,0.573752 1.44462,1.055292 2.24378,1.44462 0.75816,0.450805 1.53682,0.809398 2.33598,1.075781 1.59829,0.491786 3.23757,0.737679 4.91786,0.737679 4.40555,0.04098 8.23738,-1.680266 11.49549,-5.1637501 l -4.64123,-3.9650223 0,0 c -2.04912,2.0696049 -4.37486,3.1044033 -6.97721,3.1043972 -2.23354,6.1e-6 -4.03675,-0.6761988 -5.40964,-2.0286157 -1.47537,-1.3319114 -2.21305,-3.2785611 -2.21304,-5.839956 l 19.88658,0 m -19.88658,-5.2866967 c 0.12294,-2.4793983 0.7889,-4.3543294 1.99788,-5.6247995 1.22945,-1.2089479 2.80727,-1.8134329 4.73344,-1.8134589 1.92614,2.6e-5 3.50395,0.604511 4.73344,1.8134589 1.24994,1.2704701 1.91589,3.1454012 1.99788,5.6247995 l -13.46264,0" />
      <path
         inkscape:connector-curvature="0"
         id="path3043"
         style="font-size:72px;font-variant:normal;font-weight:bold;font-stretch:normal;fill:#4d4d4d;font-family:DIN Alternate;-inkscape-font-specification:DIN Alternate Bold"
         d="m 290.80338,7.0103295 c 0,2.8072817 0.79915,4.8051595 2.39746,5.9936385 1.51633,1.167992 3.44249,1.751987 5.77849,1.751987 l 2.8585,0 0,-6.0551119 -2.21304,0 c -1.59831,6.2e-6 -2.39746,-0.7274267 -2.39745,-2.1822994 l 0,-36.5765637 -6.42396,0 0,37.0683495" />
      <path
         inkscape:connector-curvature="0"
         id="path3045"
         style="font-size:72px;font-variant:normal;font-weight:bold;font-stretch:normal;fill:#4d4d4d;font-family:DIN Alternate;-inkscape-font-specification:DIN Alternate Bold"
         d="m 307.40115,-17.148644 -3.1966,0 0,4.88712 3.1966,0 0,19.148907 c 0,2.5204076 0.73767,4.446567 2.21304,5.778482 1.43436,1.393394 3.27856,2.09009 5.53259,2.09009 l 3.35029,0 0,-6.0551119 -2.39745,0 c -1.55734,0.040987 -2.31551,-0.7479173 -2.27452,-2.3667186 l 0,-18.5956485 4.67197,0 0,-4.88712 -4.67197,0 0,-9.712769 -6.42395,0 0,9.712769" />
    </g>
  </g>
</svg>
