<?xml version="1.0" encoding="UTF-8" standalone="no"?>
<!-- Created with Inkscape (http://www.inkscape.org/) -->
<svg id="svg2985" xmlns:rdf="http://www.w3.org/1999/02/22-rdf-syntax-ns#" xmlns="http://www.w3.org/2000/svg" height="51.681" width="357.02" version="1.1" xmlns:cc="http://creativecommons.org/ns#" xmlns:dc="http://purl.org/dc/elements/1.1/">
 <metadata id="metadata2990">
  <rdf:RDF>
   <cc:Work rdf:about="">
    <dc:format>image/svg+xml</dc:format>
    <dc:type rdf:resource="http://purl.org/dc/dcmitype/StillImage"/>
    <dc:title/>
   </cc:Work>
  </rdf:RDF>
 </metadata>
 <g id="layer1" transform="translate(-11.082343,-11.115177)">
  <g id="flowRoot2993" style="letter-spacing:0px;word-spacing:0px;" font-weight="500" transform="matrix(1.1437908,0,0,1.1437908,3.8078594,45.495264)" font-stretch="normal" line-height="125%" font-size="40px" font-variant="normal" font-family="Max-SemiBold" font-style="normal" fill="#4d4d4d">
   <path id="path3025" d="m6.36,14.756,6.424,0,0-9.1902,5.0408-5.717,0,0,8.4833,14.907,8.053,0-12.51-19.456,11.004-12.448-7.6842,0-12.264,14.969-0.12295,0,0-27.878-6.424,0,0,44.814"/>
   <path id="path3027" d="m39.064,7.0103c-0.000004,2.8073,0.79915,4.8052,2.3975,5.9936,1.5163,1.168,3.4425,1.752,5.7785,1.752h2.8585v-6.0551h-2.213c-1.598-0.0001-2.397-0.7275-2.397-2.1824v-36.577h-6.424v37.068"/>
   <path id="path3029" d="m72.044,14.756,6.424,0,0-21.792c-0.04101-3.8933-1.2602-6.6391-3.6577-8.2374-2.3975-1.5573-5.6043-2.3155-9.6206-2.2745-4.7539-0.08193-8.3501,1.4754-10.789,4.672l5.0408,3.8421c0.55325-0.92207,1.3114-1.5778,2.2745-1.9671,0.92209-0.32783,2.1823-0.49176,3.7806-0.49178,4.4056-0.08194,6.5879,1.2807,6.5469,4.088v3.3503h-8.8829c-3.4015,0.041004-5.9834,0.9631-7.7456,2.7663-1.7622,1.7622-2.6434,3.9855-2.6433,6.6698-0.000001,2.8073,1.0143,5.1125,3.0429,6.9157,1.9262,1.8442,4.672,2.7868,8.2374,2.8278,2.172,0,3.8728-0.26638,5.1023-0.79915,1.2499-0.51228,2.172-1.3114,2.7663-2.3975h0.12295v2.8278m0-11.219c0.001,2.3976-0.501,3.9344-1.505,4.6106-1.107,0.6762-3.002,0.9938-5.686,0.9528-2.131,0-3.658-0.42-4.58-1.2602-0.963-0.7581-1.445-1.6802-1.445-2.7663-0.041-2.4794,1.804-3.7601,5.533-3.8421h7.6842v2.3052"/>
   <path id="path3031" d="m85.018,4.0596c0.04098,3.6064,1.2192,6.3317,3.5347,8.1759,2.1311,1.8852,4.5183,2.8483,7.1616,2.8892,3.4015,0,6.1575-1.2602,8.2681-3.7806h0.12295v3.4118h6.424v-31.905h-6.424v18.995c-0.00002,2.1516-0.59427,3.8318-1.7827,5.0408-1.168,1.209-2.6741,1.8135-4.5183,1.8135-1.841,0.0005-3.358-0.6039-4.546-1.8129-1.209-1.209-1.814-2.8892-1.814-5.0408v-18.995h-6.424v21.208"/>
   <path id="path3033" d="m119.78,5.0125-4.4876,4.3953c4.1597,3.8113,8.8419,5.717,14.047,5.717,3.8318-0.04098,6.9772-0.9221,9.4361-2.6433,2.4794-1.6803,3.7396-4.0675,3.7806-7.1616-0.00002-2.6433-0.68647-4.8256-2.0594-6.5469-1.4754-1.7622-3.8728-2.7663-7.1924-3.0122l-5.2867-0.39958c-1.5573-0.16391-2.6434-0.54299-3.2581-1.1373-0.67621-0.53275-0.99382-1.1577-0.95284-1.8749,0-1.127,0.42006-2.0491,1.2602-2.7663,0.79914-0.71716,2.2028-1.0758,4.2109-1.0758,1.7622,0.000026,3.3195,0.25616,4.672,0.76842,1.3729,0.57377,2.6741,1.3012,3.9036,2.1823l3.965-4.6412c-1.5573-1.3524-3.3196-2.4282-5.2867-3.2273-1.0246-0.36881-2.1208-0.65568-3.2888-0.86062-1.168-0.18439-2.4897-0.2766-3.965-0.27663-3.4015,0.000032-6.2088,0.81967-8.4218,2.4589-2.2745,1.6393-3.4322,4.0982-3.4732,7.3768,0.041,2.7253,0.9221,4.8462,2.6434,6.3625,1.6803,1.5573,3.8626,2.4589,6.5469,2.7048l5.6555,0.49179c1.1885,0.040995,2.1413,0.29713,2.8585,0.76842,0.69668,0.45082,1.045,1.25,1.045,2.3975-0.00003,1.2909-0.58403,2.295-1.752,3.0122-1.168,0.71719-2.6741,1.0758-4.5183,1.0758-4.1187,0.0000061-7.4792-1.3626-10.082-4.088"/>
   <path id="path3035" d="m164.2,14.756,6.424,0,0-3.3503,0,0c2.1311,2.3975,4.8769,3.6372,8.2374,3.7191,1.9876-0.04098,3.6884-0.44056,5.1023-1.1987,1.4344-0.73768,2.5921-1.7212,3.4732-2.9507,0.88108-1.0041,1.4856-2.3667,1.8135-4.088,0.30733-1.6393,0.46102-4.3441,0.46104-8.1145-0.00002-3.8318-0.15371-6.5571-0.46104-8.1759-0.3279-1.6393-0.93238-2.9609-1.8135-3.965-1.8032-2.6843-4.6618-4.0777-8.5755-4.1802-1.6393,0.000032-3.1044,0.33814-4.3953,1.0143-1.3934,0.71722-2.6741,1.6393-3.8421,2.7663v-16.29h-6.424v44.814m12.725-25.88c1.5163,0.000025,2.715,0.25616,3.5962,0.76842,0.88109,0.55328,1.5061,1.3115,1.8749,2.2745,0.4098,0.9631,0.68643,2.0081,0.82989,3.1351,0.041,1.209,0.0615,2.4487,0.0615,3.7191-0.00002,1.209-0.0205,2.3872-0.0615,3.5347-0.14346,1.209-0.42009,2.295-0.82989,3.2581-0.36886,0.92211-0.99384,1.6803-1.8749,2.2745-0.88114,0.57376-2.0799,0.86063-3.5962,0.86062-1.4344,0.0000062-2.5716-0.30736-3.4118-0.9221-0.88113-0.59423-1.5266-1.3729-1.9364-2.336-0.38934-0.96307-0.64548-2.0389-0.76841-3.2273-0.12296-1.168-0.18443-2.3155-0.18442-3.4425-0.00001-1.2294,0.0615-2.4077,0.18442-3.5347,0.12293-1.127,0.37907-2.172,0.76841-3.1351,0.40981-0.96306,1.0553-1.7417,1.9364-2.336,0.84012-0.59422,1.9774-0.89134,3.4118-0.89136"/>
   <path id="path3037" d="m213.65,14.756,6.424,0,0-21.792c-0.041-3.8933-1.2602-6.6391-3.6577-8.2374-2.3975-1.5573-5.6043-2.3155-9.6206-2.2745-4.7539-0.08193-8.3501,1.4754-10.789,4.672l5.0408,3.8421c0.55325-0.92207,1.3114-1.5778,2.2745-1.9671,0.92208-0.32783,2.1823-0.49176,3.7806-0.49178,4.4056-0.08194,6.5878,1.2807,6.5469,4.088v3.3503h-8.8829c-3.4015,0.041004-5.9834,0.9631-7.7456,2.7663-1.7622,1.7622-2.6434,3.9855-2.6434,6.6698,0,2.8073,1.0143,5.1125,3.0429,6.9157,1.9262,1.8442,4.672,2.7868,8.2374,2.8278,2.172,0,3.8728-0.26638,5.1023-0.79915,1.2499-0.51228,2.172-1.3114,2.7663-2.3975h0.12295v2.8278m0-11.219c-0.00002,2.3975-0.50205,3.9343-1.5061,4.6105-1.1065,0.67621-3.002,0.99382-5.6863,0.95284-2.1311,0.0000061-3.6577-0.42006-4.5798-1.2602-0.96309-0.75816-1.4446-1.6803-1.4446-2.7663-0.041-2.4794,1.8032-3.7601,5.5326-3.8421h7.6842v2.3052"/>
   <path id="path3039" d="m245.71,11.406,0,3.3503,6.424,0,0-44.814-6.424,0,0,16.29,0,0c-1.1885-1.127-2.4282-2.0491-3.7191-2.7663-1.3934-0.67617-2.9098-1.0143-4.549-1.0143-3.8933,0.10249-6.7416,1.4959-8.5448,4.1802-0.88112,1.0041-1.4651,2.3258-1.752,3.965-0.34835,1.6188-0.52253,4.3441-0.52253,8.1759,0,3.7704,0.17418,6.4752,0.52253,8.1145,0.28687,1.7213,0.87087,3.0839,1.752,4.088,0.96307,1.2295,2.1618,2.213,3.5962,2.9507,1.3729,0.75817,3.0224,1.1577,4.9486,1.1987,3.4015-0.08196,6.1576-1.3217,8.2682-3.7191m-6.301-22.53c1.5163,0.000025,2.715,0.29715,3.5962,0.89136,0.8811,0.59427,1.4856,1.3729,1.8135,2.336,0.4098,0.9631,0.68642,2.0081,0.82989,3.1351,0.041,1.127,0.0615,2.3053,0.0615,3.5347-0.00002,1.127-0.0206,2.2745-0.0615,3.4425-0.14347,1.1885-0.42009,2.2643-0.82989,3.2273-0.32788,0.96309-0.93237,1.7417-1.8135,2.336-0.88113,0.61474-2.0798,0.9221-3.5962,0.9221-1.5164,0.0000062-2.6741-0.28687-3.4732-0.86062-0.88113-0.59423-1.5266-1.3524-1.9364-2.2745-0.38934-0.96307-0.64548-2.0491-0.76841-3.2581-0.12296-1.1475-0.18443-2.3257-0.18442-3.5347-0.00001-1.2704,0.0615-2.5101,0.18442-3.7191,0.12293-1.127,0.37907-2.172,0.76841-3.1351,0.40981-0.96306,1.0553-1.7212,1.9364-2.2745,0.79913-0.51225,1.9569-0.76839,3.4732-0.76842"/>
   <path id="path3041" d="m284.07,1.2318,0-5.2867c-0.041-4.2006-1.3422-7.4997-3.9035-9.8972-2.5204-2.3564-5.6043-3.5552-9.2517-3.5962-1.5164,0.000032-3.0532,0.27666-4.6105,0.82989-1.5778,0.55329-3.002,1.4549-4.2724,2.7048-1.25,1.2295-2.2745,2.9098-3.0737,5.0408-0.79916,2.0901-1.1987,4.713-1.1987,7.8686,0,3.2786,0.46105,5.9424,1.3832,7.9915,0.84013,2.1311,1.9364,3.7909,3.2888,4.9793,0.69669,0.57375,1.4446,1.0553,2.2438,1.4446,0.75816,0.4508,1.5368,0.8094,2.336,1.0758,1.5983,0.49179,3.2376,0.73768,4.9179,0.73768,4.4056,0.04098,8.2374-1.6803,11.495-5.1638l-4.6412-3.965c-2.0491,2.0696-4.3749,3.1044-6.9772,3.1044-2.2335,0.0000061-4.0368-0.6762-5.4096-2.0286-1.4754-1.3319-2.213-3.2786-2.213-5.84h19.887m-19.887-5.2867c0.12294-2.4794,0.7889-4.3543,1.9979-5.6248,1.2294-1.2089,2.8073-1.8134,4.7334-1.8135,1.9261,0.000026,3.504,0.60451,4.7334,1.8135,1.2499,1.2705,1.9159,3.1454,1.9979,5.6248h-13.463"/>
   <path id="path3043" d="m290.8,7.0103c0,2.8073,0.79915,4.8052,2.3975,5.9936,1.5163,1.168,3.4425,1.752,5.7785,1.752h2.8585v-6.0551h-2.213c-1.5983,0.0000062-2.3975-0.72743-2.3974-2.1823v-36.577h-6.424v37.068"/>
   <path id="path3045" d="m307.4-17.149-3.1966,0,0,4.8871,3.1966,0,0,19.149c0,2.5204,0.73767,4.4466,2.213,5.7785,1.4344,1.3934,3.2786,2.0901,5.5326,2.0901h3.3503v-6.0551h-2.3974c-1.5573,0.040987-2.3155-0.74792-2.2745-2.3667v-18.596h4.672v-4.8871h-4.672v-9.7128h-6.424v9.7128"/>
  </g>
 </g>
</svg>
